<svg width="28" height="24" viewBox="0 0 28 24" fill="none" xmlns="http://www.w3.org/2000/svg">
<path d="M23.3965 8.17172C23.34 7.462 23.9041 8.17172 23.9606 11.0136C23.9606 10.3031 23.9606 9.59349 23.9606 8.88219C24.017 8.17172 24.1299 8.88219 24.2426 8.88219C24.2426 9.59342 24.2426 10.3031 24.2991 10.3031C24.3554 10.3031 24.4684 10.3031 24.5247 10.3031L24.5093 8.87522C24.5657 8.87522 24.7503 8.88225 24.8068 8.88225C24.8631 10.3032 24.9759 10.3032 24.9759 8.88225C25.0324 9.59349 25.0888 9.59349 25.2016 9.59349C25.2581 11.7241 25.2581 16.0239 25.2581 15.3143C25.3992 16.0244 25.4132 17.2671 25.3991 18.5988C25.3891 19.2646 25.3788 19.9527 25.369 20.6075C25.3672 20.7712 25.3654 20.9329 25.3636 21.0915C25.3628 21.3383 25.3621 21.5807 25.3613 21.8169C25.361 22.3455 25.3637 22.8479 25.3708 23.3192C25.3725 23.4363 25.3742 23.5535 25.3759 23.6793C24.1571 23.6951 22.9055 23.7113 21.6292 23.7278C20.7137 23.7385 19.7806 23.7444 18.8355 23.7471C16.9453 23.7523 15.0074 23.7446 13.0683 23.7365C11.1291 23.7285 9.18863 23.7201 7.29313 23.7243C6.34541 23.7264 5.4089 23.7316 4.48942 23.7415C3.17899 23.757 1.89288 23.7722 0.639262 23.7871C0.625772 23.7872 0.612281 23.7874 0.598348 23.7876C0.588531 23.0739 0.578652 22.3575 0.568708 21.6386C0.566365 21.4741 0.564085 21.3095 0.561742 21.1448L0.554902 20.8482C0.550532 20.6503 0.546162 20.4521 0.541791 20.2536C0.526465 19.4594 0.511075 18.6605 0.495621 17.8577C0.468071 16.2521 0.446728 14.6314 0.430135 13.0044C0.413605 11.3773 0.401888 9.74409 0.393528 8.11332C0.390171 7.29797 0.386815 6.48319 0.383458 5.67024C0.381431 4.39325 0.379468 3.11898 0.377441 1.84915C3.17241 1.84776 5.9376 1.84636 8.64327 1.84497C8.64327 1.95777 7.93279 2.12693 8.64327 2.18342C11.4843 2.35259 11.4843 2.57831 11.4843 2.80396C11.4843 2.91682 9.35374 2.80396 10.0634 2.91682C7.93279 2.91682 7.81848 2.97325 9.95148 3.08599C10.662 3.19891 10.0634 3.08599 10.7731 3.25521C11.4843 3.4245 10.0634 3.59373 10.7731 3.76283C11.4843 3.76283 10.9088 3.76283 11.6192 3.76283C12.3283 3.87582 11.3898 4.48084 10.9529 4.48198C10.9529 4.48198 8.10588 4.50415 6.52211 4.5127C5.73025 4.51707 4.93789 4.52137 4.14514 4.52574L3.55051 4.52904L3.25315 4.53068L3.1788 4.53106L3.17203 4.53144L3.15968 4.53227L3.06696 4.53879L3.07354 4.63499L3.07437 4.6462L3.07455 4.64899L3.07474 4.67325L3.07513 4.7488L3.07677 5.05116L3.08007 5.65593C3.08437 6.46235 3.08868 7.26903 3.09305 8.07602C3.10134 9.69001 3.10964 11.305 3.118 12.9207C3.12566 14.5364 3.13326 16.1528 3.14093 17.7695L3.15138 20.1947L3.15632 21.2108C3.1579 21.2168 3.15949 21.2215 3.16107 21.2248C3.16854 21.2231 3.17424 21.2213 3.17823 21.2197L4.58987 21.2148C5.53113 21.2119 6.47232 21.2089 7.41333 21.206C9.29535 21.2018 11.1767 21.1975 13.0567 21.1933C14.9368 21.1915 16.8155 21.1898 18.6923 21.188C19.6307 21.1882 20.5687 21.1883 21.5061 21.1885C21.9722 21.1889 22.4382 21.1893 22.904 21.1896L22.8877 21.1913L22.8892 21.2024L22.89 21.2072L22.8909 20.8113C22.8923 20.2087 22.8936 19.6064 22.895 19.0044C22.899 17.8006 22.9029 16.5981 22.9068 15.3972C22.9196 12.9952 22.9324 10.9897 22.9451 8.60023L23.3965 8.17172Z" fill="#EB3349"/>
<path d="M26.3678 2.19334L26.0397 2.38303L25.8756 2.47784C25.821 2.50969 25.7681 2.54471 25.7142 2.57796L25.0704 2.98197C23.3665 4.08479 21.7544 5.35513 20.2386 6.74226C19.4818 7.43734 18.7461 8.15814 18.0332 8.90294C17.323 9.65034 16.6346 10.42 15.9695 11.209C15.3045 11.998 14.6629 12.8068 14.047 13.631L13.8185 13.9415L13.7043 14.0967L13.5109 14.3681L13.3074 14.6542L13.2056 14.7973C13.1717 14.8449 13.1388 14.8903 13.0994 14.9499L12.6455 15.6224C12.6075 15.6771 12.5703 15.7365 12.5331 15.7962L12.4215 15.974L12.1981 16.3297L11.7481 17.0544C11.4547 17.5284 11.1614 18.0022 10.8682 18.4759C10.5604 17.6634 10.2527 16.8512 9.94525 16.0395L9.83036 15.7356C9.81168 15.6819 9.79084 15.6426 9.77089 15.5971L9.7106 15.4646L9.59001 15.1995L9.52972 15.067L9.49957 15.0007L9.48444 14.9678L9.46715 14.9392L9.19063 14.4811C9.14453 14.4049 9.09918 14.3277 9.05016 14.2552L8.94845 14.1091C8.59714 13.6022 8.18686 13.1068 7.75404 12.6247C6.88346 11.6623 5.90281 10.7501 4.89176 9.9088C4.77858 9.80956 4.69232 9.72925 4.63101 9.66699C4.57047 9.60499 4.53025 9.55704 4.52151 9.53063C4.50105 9.49568 4.50257 9.47484 4.5224 9.46597C4.53228 9.46154 4.54678 9.46008 4.56534 9.46128C4.57617 9.46306 4.58047 9.45989 4.59073 9.46116C4.60093 9.46236 4.61195 9.46413 4.62379 9.46648C4.81753 9.50619 5.2418 9.71481 5.6503 9.94705C5.37752 9.79404 5.485 9.66243 5.20899 9.51252C5.26162 9.44678 5.45302 9.45394 5.75664 9.57706C6.05924 9.70075 6.47598 9.93958 6.95959 10.3431C6.72735 10.1312 6.492 9.92273 6.25254 9.71816C6.04924 9.47116 6.36242 9.58878 6.43589 9.50397C6.67782 9.71025 6.91386 9.92197 6.95161 9.87992C6.9891 9.83793 7.06428 9.75369 7.10184 9.71164C6.86421 9.497 6.37737 9.07951 6.12828 8.87811C6.37597 9.08116 6.61955 9.28927 6.65603 9.24684C6.6927 9.20396 6.76611 9.11827 6.80284 9.07527C7.067 9.26413 7.36169 9.54222 7.64929 9.8271C7.93733 10.1117 8.2179 10.4034 8.46743 10.6129L8.58707 10.4935C8.37591 10.2424 8.08255 9.95788 7.77836 9.6872C7.47436 9.416 7.15991 9.15817 6.91279 8.94689C7.19665 9.11606 7.23294 9.07552 7.30748 8.99002C7.6959 9.29231 8.04031 9.64571 8.38491 9.99791C8.72995 10.3506 9.07492 10.7015 9.47424 11.011C9.24922 10.7666 9.01989 10.5275 8.7867 10.2941C9.12008 10.4274 9.53846 10.8363 9.94177 11.3219C10.0422 11.444 10.1438 11.5678 10.241 11.6963C10.29 11.76 10.3388 11.8236 10.3873 11.8868C10.4348 11.9512 10.482 12.0151 10.5286 12.0782C10.6232 12.2027 10.7113 12.3297 10.799 12.4467C10.8432 12.5048 10.8852 12.5633 10.9264 12.6196C10.9473 12.6475 10.9678 12.6749 10.988 12.7019C10.9983 12.7153 11.0084 12.7285 11.0185 12.7417L11.0261 12.7515C11.0284 12.7545 11.0321 12.7593 11.0314 12.7578L11.0328 12.7577C11.1507 12.8648 11.2294 12.9602 11.2801 13.0748L11.2896 13.096C11.2908 13.1028 11.2934 13.0962 11.2956 13.0921L11.3026 13.0799L11.3305 13.0324C11.3494 13.0016 11.3682 12.9719 11.3875 12.943C11.4066 12.914 11.4266 12.886 11.4464 12.8578L11.5129 12.7682C11.6651 12.5661 11.818 12.3631 11.9709 12.16C12.1897 11.8765 12.408 11.5925 12.6312 11.3143C13.5166 10.1949 14.4315 9.12815 15.2619 8.12502C15.8824 7.36806 16.5477 6.61914 17.2582 5.89689C17.3466 5.80619 17.4352 5.71537 17.5238 5.62449L17.7965 5.35766C17.9796 5.18065 18.1607 5.00078 18.3477 4.82636C18.5364 4.6534 18.7252 4.48024 18.9142 4.30696L19.0564 4.17738L19.2018 4.0511L19.4934 3.79916C19.8788 3.45931 20.2835 3.14024 20.6824 2.8168C20.8842 2.65777 21.0908 2.50456 21.2946 2.34902C21.3969 2.27162 21.499 2.19435 21.6011 2.11715C21.7041 2.04109 21.8096 1.96819 21.9136 1.89384C22.1225 1.74608 22.3308 1.59871 22.5384 1.45184C22.7511 1.3113 22.963 1.1712 23.1741 1.03168C23.2799 0.962142 23.3854 0.892728 23.4907 0.823505C23.5972 0.755865 23.7057 0.691392 23.8127 0.625462C24.0275 0.494488 24.2412 0.364148 24.454 0.234441C24.5105 0.332038 24.3158 0.648768 24.6257 0.526091C25.2401 0.272378 25.5746 0.201635 25.7667 0.213985C25.9596 0.228045 26.0141 0.331088 26.0667 0.429571C26.1166 0.522925 25.2202 1.14657 25.555 1.08615C25.555 1.08615 25.8211 0.985005 25.9997 0.980572C26.3566 0.974175 25.8878 1.43176 26.2434 1.42587C26.3122 1.38844 26.3959 1.33745 26.4918 1.28894C26.5874 1.23992 26.6917 1.18647 26.7961 1.13295C27.0047 1.02592 27.2133 0.918948 27.3523 0.847635C27.6782 0.808242 27.3467 1.64361 27.6227 1.50244L26.3678 2.19334Z" fill="#EB3349"/>
</svg>
