<svg width="22" height="22" viewBox="0 0 22 22" fill="none" xmlns="http://www.w3.org/2000/svg">
<path d="M21.7272 0.162703C21.8124 0.231423 21.8811 0.31833 21.9283 0.417052C21.9755 0.515774 22 0.623809 22 0.733236V10.2666H10.2667V2.3407L21.1127 0.0145696C21.2198 -0.00856058 21.3307 -0.00739214 21.4373 0.017989C21.5439 0.0433701 21.6435 0.0923186 21.7287 0.161236M8.8 2.65457L0.579333 4.41604C0.415293 4.45127 0.268295 4.54169 0.162865 4.67221C0.0574353 4.80273 -5.00677e-05 4.96545 3.27204e-08 5.13324V10.2666H8.8V2.65457ZM3.27204e-08 11.7332V18.3332C2.68016e-05 18.5099 0.0638441 18.6807 0.179715 18.814C0.295586 18.9474 0.45572 19.0345 0.630667 19.0592L8.8 20.2267V11.7332H3.27204e-08ZM10.2667 20.4364L21.164 21.9926C21.2679 22.0073 21.3738 21.9995 21.4745 21.9697C21.5751 21.94 21.6683 21.889 21.7475 21.8201C21.8268 21.7513 21.8903 21.6663 21.9339 21.5708C21.9774 21.4753 22 21.3715 22 21.2666V11.7332H10.2667V20.4364Z" fill="white"/>
</svg>
